<svg xmlns="http://www.w3.org/2000/svg" width="17" height="16">
    <path fill="#008ED6" fill-rule="evenodd" d="M15.323 4.699c-.573.703-1.458 1.062-2.622 1.078-.644 1.884-2.254 3.27-4.192 3.478v3.509h1.545c.277 0 .5.224.5.5s-.223.5-.5.5H6.012c-.276 0-.5-.224-.5-.5s.224-.5.5-.5h1.497v-3.51c-1.937-.212-3.543-1.599-4.185-3.483-1.123-.032-1.985-.385-2.545-1.072C-.194 3.506.141 1.754.156 1.681c.047-.232.252-.399.49-.399h2.371V.783c0-.276.224-.5.5-.5h8.993c.276 0 .5.224.5.5v.499h2.447c.237 0 .442.167.49.399.015.073.35 1.825-.624 3.018zM1.093 2.282c-.023.455.022 1.25.465 1.789.326.398.847.62 1.529.684-.036-.258-.07-.516-.07-.785V2.282H1.093zm10.917-.999H4.017V3.97c0 2.392 1.793 4.338 3.997 4.338 2.203 0 3.996-1.946 3.996-4.338V1.283zm1 .999V3.97c0 .271-.034.531-.071.791.721-.054 1.268-.278 1.606-.69.443-.539.487-1.334.465-1.789h-2zM4.518 14.279h7.03c.277 0 .5.224.5.5s-.223.5-.5.5h-7.03c-.276 0-.5-.224-.5-.5s.224-.5.5-.5z"/>
</svg>
