<svg xmlns="http://www.w3.org/2000/svg" width="11" height="17">
    <path fill="#008ED6" fill-rule="evenodd" d="M6.56 1.339h.003m-.003 0L5.432 7.267l4.087.013-5.564 8.037 1.129-6.522-4.087-.014L6.56 1.339m.001-1L6.48.342c-.176.014-.293.073-.432.167-.077.051-.148.113-.209.186-.019.021-.036.044-.052.067L.184 8.178c-.221.303-.254.704-.084 1.038.17.334.513.546.889.549l2.887.022-.908 5.346c-.086.459.159.918.59 1.102.129.055.264.081.397.081.314 0 .572-.146.766-.412l5.611-8.036c.221-.303.253-.704.084-1.038-.17-.335-.513-.546-.89-.55L6.64 6.276l.898-4.702c.018-.075.028-.154.028-.235 0-.541-.431-.982-.969-.999L6.561.339z"/>
</svg>
