<svg xmlns="http://www.w3.org/2000/svg" width="33" height="32">
    <path fill="#008ED6" fill-rule="evenodd" d="M20.008 31.984c-9.089 0-9.159-.376-10.285-1.224C9.126 30.31 8 30 3.885 29.732c-.298-.02-.582-.134-.773-.365-.087-.107-2.143-3.105-2.143-7.908 0-4.732 1.471-6.89 1.534-6.99.183-.292.503-.47.848-.47 3.378 0 8.062-4.313 11.211-11.841C15.106.856 15.219 0 17.219 0c1.137 0 2.413.814 3.042 1.859 1.291 2.135.636 6.721.029 9.171 2.062-.016 5.796-.045 7.572-.045 2.472 0 4.106 1.474 4.156 3.628.017.711-.077 1.62-.283 2.089.544.542 1.246 1.361 1.276 2.414.039 1.36-.852 2.396-1.42 2.989.129.396.391.92.366 1.547-.063 1.542-1.253 2.536-1.995 3.055.061.422.109 1.218-.026 1.833-.535 2.457-4.137 3.444-9.928 3.444zM4.416 27.703c3.584.297 5.5.698 6.51 1.459.783.589.662.822 9.082.822 2.568 0 7.59-.107 7.975-1.87.153-.705-.59-1.398-.593-1.403-.203-.501.024-1.089.519-1.306.008-.003 2.004-.719 2.05-1.835.029-.714-.46-1.142-.472-1.16-.291-.452-.185-1.072.257-1.38.005-.004 1.299-.788 1.267-1.857-.024-.849-1.143-1.446-1.177-1.466-.25-.143-.432-.39-.489-.674-.056-.282.007-.579.183-.808 0 0 .508-.809.49-1.566-.037-1.623-1.782-1.674-2.156-1.674-2.522 0-9.001.026-9.001.026-.35.001-.651-.163-.839-.443-.188-.279-.202-.626-.092-.944.977-2.814 1.523-7.228.617-8.735C18.28 2.444 18.219 2 17.219 2c-.139 0-.469.109-.813.929-3.343 7.995-8.334 12.619-12.422 13.037-.352.804-1.015 2.47-1.015 5.493 0 3.085.977 5.472 1.447 6.244z"/>
</svg>
