<svg xmlns="http://www.w3.org/2000/svg" width="10" height="17">
    <path fill="#008ED6" fill-rule="evenodd" d="M5.035 16.781c-2.471 0-4.523-2.003-4.523-4.474V5.255C.512 2.784 2.564.781 5.035.781c2.471 0 4.474 2.003 4.474 4.474v7.052c0 2.471-2.003 4.474-4.474 4.474zM8.509 5.255c0-1.915-1.558-3.474-3.474-3.474-1.916 0-3.523 1.559-3.523 3.474v7.052c0 1.915 1.607 3.474 3.523 3.474 1.916 0 3.474-1.559 3.474-3.474V5.255zM5.016 7.281c-.277 0-.5-.224-.5-.5v-2.5c0-.276.223-.5.5-.5.276 0 .5.224.5.5v2.5c0 .276-.224.5-.5.5z"/>
</svg>
