<svg xmlns="http://www.w3.org/2000/svg" width="18" height="32">
    <path fill="#008ED6" fill-rule="evenodd" d="M15.003 32H2.994c-1.657 0-3-1.343-3-3V3c0-1.657 1.343-3 3-3h12.009c1.657 0 3 1.343 3 3v26c0 1.657-1.343 3-3 3zm1-29c0-.552-.448-1-1-1H2.994c-.552 0-1 .448-1 1v26c0 .552.448 1 1 1h12.009c.552 0 1-.448 1-1V3zM11 5H7c-.552 0-1-.448-1-1 0-.553.448-1 1-1h4c.552 0 1 .447 1 1 0 .552-.448 1-1 1zM9 25.005c1.102 0 1.995.894 1.995 1.994 0 1.102-.893 1.996-1.995 1.996s-1.995-.894-1.995-1.996c0-1.1.893-1.994 1.995-1.994z"/>
</svg>
