<svg xmlns="http://www.w3.org/2000/svg" width="24" height="32">
    <path fill="#008ED6" fill-rule="evenodd" d="M14.01 31.191c-.017.02-.713.797-1.575.797h-.076c-.863 0-1.563-.777-1.579-.797C6.449 26.21.01 19.123.01 12.193.01 5.575 5.566-.012 12.125-.012c7.552 0 11.885 5.587 11.885 12.205 0 6.621-5.935 14.325-10 18.998zM12.125 1.988C6.642 1.988 2.01 6.661 2.01 12.193c0 5.894 5.623 12.345 9.729 17.055l.524.601c.036.035.087.075.133.107.045-.032.095-.072.131-.107 6.293-7.241 9.483-13.181 9.483-17.656 0-5.08-3.056-10.205-9.885-10.205zm-.079 16.056c-3.314 0-6-2.687-6-6 0-3.314 2.686-6 6-6 3.313 0 6 2.686 6 6 0 3.313-2.687 6-6 6zM12 8c-2.206 0-4 1.794-4 4s1.84 4.044 4.046 4.044C14.252 16.044 16 14.206 16 12c0-2.206-1.794-4-4-4z"/>
</svg>
