<svg xmlns="http://www.w3.org/2000/svg" width="32" height="32">
    <path fill="#008ED6" fill-rule="evenodd" d="M30 19.08l-2.599.649c-.194.594-.436 1.165-.716 1.714l1.39 2.316c.519.829.78 2.047 0 2.829l-1.415 1.414c-.78.781-2.099.64-2.894.088l-2.256-1.437c-.577.299-1.18.555-1.808.758l-.577 2.604C18.953 30.969 18.12 32 17.016 32h-2.001c-1.104 0-1.781-1.047-1.999-2l-.641-2.56c-.682-.216-1.335-.494-1.959-.823L8.103 28.09c-.795.552-2.114.693-2.894-.088l-1.415-1.414c-.78-.782-.519-2 0-2.829l1.463-2.437c-.255-.513-.479-1.042-.658-1.593L2 19.08c-.953-.219-2-.896-2-2v-2c0-1.105 1.031-1.938 1.984-2.109l2.566-.57c.188-.597.431-1.168.705-1.72L3.794 8.246c-.519-.828-.781-2.047 0-2.828l1.414-1.414c.781-.781 2.1-.641 2.895-.089l2.308 1.47c.619-.327 1.27-.603 1.947-.819L13 2c.219-.953.895-2 2-2h2c1.104 0 1.937 1.031 2.109 1.984l.576 2.598c.635.205 1.246.464 1.83.767l2.251-1.434c.795-.552 2.114-.692 2.894.089l1.415 1.414c.78.781.519 2 0 2.828l-1.389 2.314c.301.589.563 1.201.763 1.841l2.567.57c.953.171 1.984 1.004 1.984 2.109v2c0 1.104-1.047 1.781-2 2zm-.418-4.157l-3.696-.821-.346-1.104c-.154-.496-.362-.995-.635-1.529l-.505-.987 1.98-3.297c.109-.175.164-.346.181-.45l-1.312-1.276c-.13 0-.274.052-.409.143l-3.224 2.054-1.023-.532c-.499-.259-1.012-.474-1.523-.639l-1.089-.352-.839-3.794C17.115 2.195 16.986 2.02 17 2h-1.859c-.063.087-.147.254-.201.485l-.912 3.648-1.063.339c-.549.175-1.094.404-1.622.682l-1.027.542-3.354-2.138c-.068-.047-.212-.099-.34-.14L5.308 6.733c.017.105.075.283.201.484l2.024 3.373-.487.98c-.254.514-.446.981-.588 1.431l-.346 1.102-3.773.836c-.137.024-.301.142-.335.142L2 15.08v1.859c.087.062.254.148.485.2l3.672.918.343 1.052c.14.43.32.863.548 1.324l.487.98-2.046 3.408c-.109.175-.163.346-.181.449l1.312 1.276c.13 0 .274-.051.409-.142l3.292-2.099 1.028.543c.533.282 1.081.512 1.63.685l1.065.338.921 3.681c.046.203.13.363.191.448h1.8c.072-.058.179-.218.217-.417l.824-3.723 1.09-.353c.504-.163 1.01-.374 1.503-.63l1.023-.53 3.292 2.1c.07.048.214.099.341.14l1.315-1.314c-.017-.106-.076-.284-.201-.484l-1.959-3.267.502-.986c.241-.475.443-.955.598-1.429l.344-1.051 3.708-.925c.203-.047.363-.131.448-.192l.016-1.775c-.038-.07-.211-.2-.435-.241zm-13.569 7.086c-3.32 0-6.023-2.696-6.023-6.01 0-3.313 2.703-6.009 6.023-6.009 3.321 0 6.024 2.696 6.024 6.009 0 3.314-2.703 6.01-6.024 6.01zM16 12c-2.206 0-4 1.794-4 3.999 0 2.206 1.794 4 4 4s4-1.794 4-4C20 13.794 18.206 12 16 12z"/>
</svg>
