<svg xmlns="http://www.w3.org/2000/svg" width="17" height="16">
    <path fill="#008ED6" fill-rule="evenodd" d="M12.217 15.08c-.082.05-.172.074-.262.074-.168 0-.331-.085-.426-.238-.145-.235-.072-.543.164-.688.874-.538 1.588-1.249 2.133-2.067l-.484-.279c-.239-.138-.321-.444-.183-.683.138-.239.445-.321.683-.183l.482.278c.37-.779.601-1.626.665-2.513h-.536c-.277 0-.5-.224-.5-.5s.223-.5.5-.5h.518c-.064-.912-.313-1.768-.693-2.549l-.435.252c-.079.045-.165.066-.25.066-.172 0-.34-.089-.433-.25-.138-.239-.056-.544.183-.683l.436-.251c-.493-.725-1.124-1.344-1.847-1.838l-.248.43c-.093.161-.261.25-.434.25-.085 0-.171-.021-.249-.066-.24-.139-.322-.445-.183-.684l.25-.433c-.779-.381-1.636-.63-2.548-.694v.595c0 .277-.223.5-.5.5-.276 0-.5-.223-.5-.5v-.593c-.891.066-1.731.304-2.496.673l.261.452c.138.239.056.545-.183.684-.078.045-.164.066-.249.066-.173 0-.341-.089-.434-.25l-.261-.452c-.731.491-1.356 1.123-1.855 1.847l.457.264c.24.139.322.444.184.683-.093.161-.261.25-.434.25-.085 0-.171-.021-.25-.066l-.464-.269c-.385.779-.636 1.637-.703 2.55h.523c.276 0 .5.224.5.5 0 .277-.224.5-.5.5h-.544c.063.899.3 1.758.677 2.546l.511-.295c.239-.138.545-.057.684.183.138.239.056.545-.184.683l-.512.296c.535.795 1.227 1.49 2.073 2.02.234.147.305.455.158.689-.147.235-.456.306-.689.158C1.443 13.573.041 11.041.041 8.273c0-4.406 3.584-7.99 7.99-7.99 4.406 0 7.99 3.584 7.99 7.99 0 2.795-1.422 5.339-3.804 6.807zM8.016 7.284c.176 0 .334.058.478.139l2.726-1.575c.24-.138.545-.056.683.183.139.239.057.545-.183.683L9.012 8.278l.001.003c0 .55-.446.997-.997.997-.552 0-.998-.447-.998-.997 0-.551.446-.997.998-.997z"/>
</svg>
